<?xml version="1.0" standalone="no"?>
<!DOCTYPE svg PUBLIC "-//W3C//DTD SVG 20010904//EN"
 "http://www.w3.org/TR/2001/REC-SVG-20010904/DTD/svg10.dtd">
<svg version="1.0" xmlns="http://www.w3.org/2000/svg"
 width="790.000000pt" height="316.000000pt" viewBox="0 0 790.000000 316.000000"
 preserveAspectRatio="xMidYMid meet">

<g transform="translate(0.000000,316.000000) scale(0.100000,-0.100000)"
fill="#000000" stroke="none">
<path d="M17 3153 c-4 -3 7 -31 25 -62 17 -31 42 -76 56 -101 14 -25 34 -61
45 -80 54 -97 208 -373 242 -435 21 -38 43 -79 50 -90 7 -11 26 -45 42 -75 25
-45 152 -274 240 -430 39 -69 76 -136 111 -200 19 -36 55 -100 79 -143 24 -42
55 -99 70 -125 14 -26 35 -63 46 -82 54 -97 208 -373 242 -435 21 -38 43 -79
50 -90 7 -11 26 -45 42 -75 138 -255 396 -710 403 -710 7 0 70 107 260 440 42
74 104 182 137 240 33 58 111 196 174 307 63 112 117 203 120 203 3 0 38 -60
77 -132 40 -73 86 -158 103 -188 36 -63 62 -111 109 -195 18 -33 42 -76 53
-95 20 -35 200 -360 242 -435 12 -22 37 -66 55 -99 l33 -58 24 38 c13 22 28
48 34 59 5 11 18 34 29 52 23 38 216 375 362 633 58 102 153 268 210 370 58
102 116 203 128 225 68 121 265 471 340 605 48 85 96 171 107 190 11 19 35 62
53 95 18 33 39 69 45 80 7 11 26 45 42 75 29 53 182 332 228 415 89 161 155
296 150 305 -9 15 -307 13 -327 -2 -8 -7 -29 -38 -45 -68 -17 -30 -43 -77 -58
-105 -15 -27 -46 -84 -68 -125 -35 -66 -75 -139 -187 -345 -15 -27 -51 -95
-80 -150 -29 -55 -56 -104 -60 -110 -4 -5 -31 -55 -60 -110 -44 -83 -200 -368
-298 -545 -13 -25 -59 -108 -102 -185 -42 -77 -90 -162 -105 -190 -16 -27 -37
-66 -48 -85 -205 -367 -306 -526 -321 -509 -2 2 -17 29 -33 59 -49 90 -236
430 -274 497 -10 18 -35 63 -55 100 -21 37 -57 104 -82 148 -25 44 -45 87 -44
97 0 9 12 35 26 57 14 22 26 43 26 46 0 3 12 24 26 47 56 89 695 1244 801
1448 11 22 10 26 -5 32 -22 9 -3476 10 -3485 1z m1909 -996 l355 -637 -42 -78
c-23 -42 -61 -111 -84 -152 -48 -84 -69 -122 -110 -195 -154 -277 -273 -475
-286 -475 -3 0 -166 287 -360 637 -194 351 -361 654 -372 673 -11 19 -55 98
-97 175 -43 77 -87 157 -98 177 -12 21 -38 68 -58 105 -61 113 -82 149 -127
230 -25 43 -56 102 -71 131 l-26 52 511 -2 511 -3 354 -638z m1013 566 c-23
-43 -86 -159 -139 -258 -54 -99 -118 -216 -142 -261 -129 -239 -204 -374 -208
-374 -3 0 -108 188 -235 417 -126 229 -247 447 -268 485 l-38 68 536 0 536 0
-42 -77z"/>
<path d="M5067 2219 c-56 -29 -84 -94 -67 -154 15 -54 48 -86 130 -126 36 -17
73 -38 83 -47 20 -18 23 -75 5 -89 -24 -19 -68 -24 -109 -13 -33 9 -43 18 -55
47 -9 20 -13 46 -10 59 7 26 4 27 -31 18 -31 -8 -31 -60 0 -105 46 -69 191
-79 275 -18 32 23 55 84 47 129 -10 57 -50 96 -155 148 -88 43 -95 49 -98 79
-4 45 31 67 95 60 54 -6 83 -33 83 -78 0 -26 4 -29 30 -29 20 0 30 5 30 15 0
34 -31 86 -62 105 -45 27 -139 27 -191 -1z"/>
<path d="M7628 2219 c-63 -33 -90 -97 -69 -162 17 -50 56 -85 138 -122 39 -18
76 -42 82 -53 30 -56 -4 -96 -80 -95 -68 1 -94 26 -94 88 0 45 -6 51 -39 39
-11 -4 -16 -19 -16 -44 0 -71 68 -120 165 -120 128 0 206 89 170 194 -17 51
-56 82 -147 121 -77 33 -114 70 -104 103 15 47 133 55 168 12 10 -12 18 -35
18 -51 0 -26 4 -29 30 -29 28 0 30 2 24 28 -12 50 -29 75 -64 93 -47 25 -133
24 -182 -2z"/>
<path d="M5410 1995 l0 -235 65 0 65 0 0 120 0 120 60 0 60 0 0 -120 0 -120
65 0 65 0 0 235 0 235 -65 0 -65 0 0 -95 0 -95 -60 0 -60 0 0 95 0 95 -65 0
-65 0 0 -235z"/>
<path d="M5970 2225 c0 -3 -29 -104 -65 -225 -36 -121 -65 -224 -65 -230 0 -6
10 -10 22 -8 17 2 26 15 37 51 l15 47 78 0 c69 0 78 -2 78 -19 0 -10 5 -32 11
-50 11 -30 12 -31 75 -31 35 0 64 4 64 9 0 5 -8 37 -19 72 -10 35 -30 107 -44
159 -15 52 -35 124 -45 160 l-18 65 -62 3 c-34 2 -62 0 -62 -3z m53 -215 l25
-95 -55 -3 c-31 -2 -58 -1 -60 2 -3 3 7 50 23 105 16 55 32 97 36 93 4 -4 18
-50 31 -102z"/>
<path d="M6270 1995 l0 -235 65 0 65 0 0 94 c0 138 13 141 81 13 l54 -102 73
-3 c39 -2 72 0 72 4 0 4 -17 39 -39 78 -21 39 -59 109 -84 157 l-46 85 56 70
c50 63 53 69 33 72 -28 5 -38 -4 -123 -116 l-72 -95 -3 107 -3 106 -64 0 -65
0 0 -235z"/>
<path d="M6730 1995 l0 -235 165 0 c158 0 165 1 165 20 0 19 -7 20 -100 20
l-100 0 0 100 0 100 75 0 c68 0 75 2 75 20 0 18 -7 20 -75 20 l-75 0 0 75 0
75 85 0 c78 0 85 2 85 20 0 19 -7 20 -150 20 l-150 0 0 -235z"/>
<path d="M7120 1995 l0 -235 65 0 65 0 0 115 c0 113 0 115 23 115 49 0 61 -21
68 -118 3 -49 9 -94 13 -101 4 -6 35 -11 75 -11 l68 0 -8 38 c-4 20 -12 63
-18 95 -10 59 -38 96 -71 97 -8 0 3 10 25 23 49 28 67 60 61 110 -10 84 -62
107 -237 107 l-129 0 0 -235z m186 195 c15 -6 33 -18 40 -28 14 -18 18 -70 8
-97 -8 -19 -55 -45 -84 -45 -19 0 -20 6 -20 90 0 98 2 100 56 80z"/>
<path d="M4366 1590 c-75 -14 -189 -74 -232 -123 -42 -48 -85 -137 -105 -217
-20 -80 -17 -336 5 -417 46 -172 119 -262 255 -314 111 -42 298 -43 411 0 62
23 150 95 185 152 13 20 37 75 52 121 26 78 28 94 27 253 0 159 -1 175 -28
256 -45 137 -123 224 -243 269 -66 25 -241 36 -327 20z m183 -84 c73 -38 91
-130 91 -469 -1 -348 -16 -417 -103 -460 -75 -38 -155 14 -177 115 -18 85 -31
323 -25 453 14 285 50 373 153 375 18 0 46 -7 61 -14z"/>
<path d="M5120 1041 l0 -541 155 0 155 0 0 260 0 260 53 0 c66 0 112 -27 134
-78 12 -26 18 -86 23 -207 4 -93 13 -185 20 -202 l12 -33 165 0 c153 0 165 1
158 17 -22 52 -35 113 -50 232 -24 188 -36 211 -144 270 l-53 29 38 12 c139
46 214 165 185 293 -15 69 -48 117 -108 156 -91 61 -118 65 -445 69 l-298 3 0
-540z m441 438 c77 -26 109 -79 109 -181 0 -129 -56 -188 -177 -188 l-63 0 0
190 0 190 49 0 c26 0 63 -5 82 -11z"/>
<path d="M6140 1040 l0 -540 380 0 380 0 0 55 0 55 -220 0 -220 0 0 485 0 485
-160 0 -160 0 0 -540z"/>
<path d="M6970 1040 l0 -540 243 0 c157 1 268 5 318 14 171 31 286 132 335
295 33 113 35 341 3 461 -29 107 -102 207 -185 252 -95 51 -148 58 -443 58
l-271 0 0 -540z m498 432 c71 -51 93 -134 99 -377 5 -195 -3 -296 -33 -387
-27 -83 -110 -133 -207 -126 l-42 3 -3 459 -2 458 77 -3 c62 -3 85 -9 111 -27z"/>
</g>
</svg>
